<?xml version="1.0" encoding="UTF-8"?>
<!DOCTYPE svg PUBLIC "-//W3C//DTD SVG 1.1//EN" "http://www.w3.org/Graphics/SVG/1.1/DTD/svg11.dtd">
<svg xmlns="http://www.w3.org/2000/svg" version="1.1" width="500px" height="500px" style="shape-rendering:geometricPrecision; text-rendering:geometricPrecision; image-rendering:optimizeQuality; fill-rule:evenodd; clip-rule:evenodd" xmlns:xlink="http://www.w3.org/1999/xlink">
<g><path style="opacity:1" fill="#fefefe" d="M -0.5,-0.5 C 166.167,-0.5 332.833,-0.5 499.5,-0.5C 499.5,166.167 499.5,332.833 499.5,499.5C 332.833,499.5 166.167,499.5 -0.5,499.5C -0.5,332.833 -0.5,166.167 -0.5,-0.5 Z"/></g>
<g><path style="opacity:1" fill="#040404" d="M 78.5,314.5 C 78.5,280.167 78.5,245.833 78.5,211.5C 93.0097,211.829 107.343,211.496 121.5,210.5C 122.329,203.011 122.829,195.344 123,187.5C 131.057,163.387 146.89,155.887 170.5,165C 179.939,171.358 185.772,180.192 188,191.5C 188.5,197.825 188.666,204.158 188.5,210.5C 203.167,210.5 217.833,210.5 232.5,210.5C 232.667,245.835 232.5,281.168 232,316.5C 228.724,328.11 221.224,335.277 209.5,338C 172.833,338.667 136.167,338.667 99.5,338C 87.3816,334.716 80.3816,326.883 78.5,314.5 Z"/></g>
<g><path style="opacity:1" fill="#fcfcfc" d="M 150.5,171.5 C 165.049,171.21 173.883,178.21 177,192.5C 177.499,198.491 177.666,204.491 177.5,210.5C 162.833,210.5 148.167,210.5 133.5,210.5C 133.099,202.415 133.599,194.415 135,186.5C 138.106,179.225 143.272,174.225 150.5,171.5 Z"/></g>
<g><path style="opacity:1" fill="#939393" d="M 340.5,205.5 C 347.344,204.181 354.344,204.181 361.5,205.5C 361.376,206.107 361.043,206.44 360.5,206.5C 354.021,205.509 347.354,205.176 340.5,205.5 Z"/></g>
<g><path style="opacity:1" fill="#979797" d="M 400.5,207.5 C 400.611,206.883 400.944,206.383 401.5,206C 396.98,205.186 392.646,205.353 388.5,206.5C 387.957,206.44 387.624,206.107 387.5,205.5C 392.456,204.506 397.456,204.173 402.5,204.5C 402.715,206.179 402.048,207.179 400.5,207.5 Z"/></g>
<g><path style="opacity:1" fill="#fe3734" d="M 339.5,279.5 C 339.5,280.167 339.5,280.833 339.5,281.5C 329.145,281.832 318.812,281.499 308.5,280.5C 310.197,279.636 311.363,278.303 312,276.5C 312.498,273.183 312.665,269.85 312.5,266.5C 321.726,250.478 321.726,234.478 312.5,218.5C 313.372,213.553 312.039,209.387 308.5,206C 315.167,205.333 321.833,205.333 328.5,206C 326.951,207.214 325.785,208.714 325,210.5C 324.333,232.5 324.333,254.5 325,276.5C 325.374,277.416 325.874,278.25 326.5,279C 330.821,279.499 335.154,279.666 339.5,279.5 Z"/></g>
<g><path style="opacity:1" fill="#0b0a0a" d="M 340.5,205.5 C 347.354,205.176 354.021,205.509 360.5,206.5C 359.222,208.544 359.388,210.544 361,212.5C 366,220.5 371,228.5 376,236.5C 381,228.833 386,221.167 391,213.5C 392.016,210.374 391.183,208.041 388.5,206.5C 392.646,205.353 396.98,205.186 401.5,206C 400.944,206.383 400.611,206.883 400.5,207.5C 396.546,209.62 393.379,212.62 391,216.5C 386.234,223.704 381.734,231.038 377.5,238.5C 383.813,250.458 390.646,262.124 398,273.5C 400.349,276.017 402.849,278.35 405.5,280.5C 399.537,281.496 393.537,281.829 387.5,281.5C 387.333,292.838 387.5,304.172 388,315.5C 388.5,316 389,316.5 389.5,317C 385.833,317.667 382.167,317.667 378.5,317C 379.701,316.097 380.535,314.931 381,313.5C 381.667,300.833 381.667,288.167 381,275.5C 380.355,274.354 379.522,273.354 378.5,272.5C 379.665,271.416 380.998,270.583 382.5,270C 377.874,262.583 373.374,255.083 369,247.5C 368.333,246.167 367.667,246.167 367,247.5C 361.667,255.5 356.333,263.5 351,271.5C 349.872,273.345 349.372,275.345 349.5,277.5C 351.041,278.667 352.375,280 353.5,281.5C 348.833,281.5 344.167,281.5 339.5,281.5C 339.5,280.833 339.5,280.167 339.5,279.5C 342.372,278.474 344.872,276.808 347,274.5C 353.91,264.591 360.41,254.424 366.5,244C 360.799,234.1 354.966,224.267 349,214.5C 346.638,210.973 343.804,207.973 340.5,205.5 Z"/></g>
<g><path style="opacity:1" fill="#eeeb1e" d="M 312.5,218.5 C 321.726,234.478 321.726,250.478 312.5,266.5C 298.618,281.635 281.951,285.468 262.5,278C 245.5,268.052 238.667,253.219 242,233.5C 250.082,208.868 266.915,199.368 292.5,205C 300.693,207.379 307.359,211.879 312.5,218.5 Z"/></g>
<g><path style="opacity:1" fill="#fefefd" d="M 268.5,206.5 C 280.244,205.121 289.744,209.121 297,218.5C 308.358,234.707 310.692,252.04 304,270.5C 299.331,275.669 293.497,278.002 286.5,277.5C 282.259,277.747 278.259,276.913 274.5,275C 257.523,261.534 250.69,244.034 254,222.5C 255.947,214.393 260.78,209.06 268.5,206.5 Z"/></g>
<g><path style="opacity:1" fill="#4f4f4f" d="M 121.5,210.5 C 107.343,211.496 93.0097,211.829 78.5,211.5C 78.5,245.833 78.5,280.167 78.5,314.5C 77.5016,280.004 77.1683,245.337 77.5,210.5C 92.1667,210.5 106.833,210.5 121.5,210.5 Z"/></g>
<g><path style="opacity:1" fill="#b8b8b8" d="M 177.5,227.5 C 176.549,226.081 176.216,224.415 176.5,222.5C 162.167,222.5 147.833,222.5 133.5,222.5C 133.784,224.415 133.451,226.081 132.5,227.5C 132.5,225.5 132.5,223.5 132.5,221.5C 147.5,221.5 162.5,221.5 177.5,221.5C 177.5,223.5 177.5,225.5 177.5,227.5 Z"/></g>
<g><path style="opacity:1" fill="#bcbcbc" d="M 122.5,227.5 C 121.549,226.081 121.216,224.415 121.5,222.5C 110.833,222.5 100.167,222.5 89.5,222.5C 89.5,248.167 89.5,273.833 89.5,299.5C 88.5007,274.241 88.1674,248.241 88.5,221.5C 99.8333,221.5 111.167,221.5 122.5,221.5C 122.5,223.5 122.5,225.5 122.5,227.5 Z"/></g>
<g><path style="opacity:1" fill="#fbfbfb" d="M 94.5,323.5 C 95.1667,322.833 95.8333,322.167 96.5,321.5C 99.8051,320.049 103.305,319.382 107,319.5C 114.891,320.628 122.725,322.128 130.5,324C 139.424,325.161 148.091,324.161 156.5,321C 162.991,317.922 169.325,314.588 175.5,311C 179.881,306.811 179.048,304.311 173,303.5C 166.219,304.473 160.053,306.973 154.5,311C 145.929,312.033 137.596,311.033 129.5,308C 133.324,307.773 137.158,307.94 141,308.5C 143.925,308.477 146.759,307.977 149.5,307C 150.935,304.733 150.602,302.733 148.5,301C 136.196,298.23 124.03,295.063 112,291.5C 110.167,291.667 108.333,291.833 106.5,292C 100.812,294.512 95.1451,297.012 89.5,299.5C 89.5,273.833 89.5,248.167 89.5,222.5C 100.167,222.5 110.833,222.5 121.5,222.5C 121.216,224.415 121.549,226.081 122.5,227.5C 125.833,227.5 129.167,227.5 132.5,227.5C 133.451,226.081 133.784,224.415 133.5,222.5C 147.833,222.5 162.167,222.5 176.5,222.5C 176.216,224.415 176.549,226.081 177.5,227.5C 181.167,227.5 184.833,227.5 188.5,227.5C 188.5,225.5 188.5,223.5 188.5,221.5C 199.5,221.5 210.5,221.5 221.5,221.5C 221.5,225.5 221.5,229.5 221.5,233.5C 219.533,233.261 217.699,233.594 216,234.5C 215.333,244.833 215.333,255.167 216,265.5C 217.699,266.406 219.533,266.739 221.5,266.5C 221.667,282.503 221.5,298.503 221,314.5C 219.59,319.84 216.423,323.673 211.5,326C 174.893,327.647 138.227,327.981 101.5,327C 98.8608,326.347 96.5274,325.18 94.5,323.5 Z"/></g>
<g><path style="opacity:1" fill="#131313" d="M 137.5,224.5 C 138.552,224.351 139.552,224.517 140.5,225C 146.167,231.333 151.833,237.667 157.5,244C 156.092,244.315 154.759,243.982 153.5,243C 150.117,239.072 146.617,235.239 143,231.5C 140.073,235.452 137.239,235.452 134.5,231.5C 133.325,232.855 132.325,232.688 131.5,231C 133.706,228.963 135.706,226.797 137.5,224.5 Z"/></g>
<g><path style="opacity:1" fill="#030303" d="M 169.5,230.5 C 183.796,232.685 198.129,234.685 212.5,236.5C 212.5,245.5 212.5,254.5 212.5,263.5C 211.127,263.343 209.793,263.51 208.5,264C 204.5,266.333 200.5,268.667 196.5,271C 194.833,271.333 193.167,271.667 191.5,272C 178.825,272.333 166.158,272 153.5,271C 150.28,264.125 152.614,259.791 160.5,258C 165.833,257.333 171.167,256.667 176.5,256C 182.058,252.115 181.724,248.782 175.5,246C 172.854,245.503 170.187,245.336 167.5,245.5C 166.974,240.193 167.64,235.193 169.5,230.5 Z"/></g>
<g><path style="opacity:1" fill="#171717" d="M 127.5,233.5 C 137.864,237.515 147.864,242.348 157.5,248C 149.588,246.136 142.088,242.97 135,238.5C 133.481,243.277 130.814,244.277 127,241.5C 125.401,244.378 123.567,247.044 121.5,249.5C 121.167,249.167 120.833,248.833 120.5,248.5C 123.118,243.599 125.452,238.599 127.5,233.5 Z"/></g>
<g><path style="opacity:1" fill="#060606" d="M 160.5,254.5 C 148.914,253.522 137.247,253.189 125.5,253.5C 125.5,254.833 125.5,256.167 125.5,257.5C 124.362,260.267 122.528,260.934 120,259.5C 119.502,262.817 119.335,266.15 119.5,269.5C 122.01,269.054 124.01,269.72 125.5,271.5C 125.5,272.833 125.5,274.167 125.5,275.5C 137.012,275.828 148.346,275.495 159.5,274.5C 162.167,274.5 164.833,274.5 167.5,274.5C 167.5,275.5 167.5,276.5 167.5,277.5C 150.833,277.5 134.167,277.5 117.5,277.5C 117.5,268.833 117.5,260.167 117.5,251.5C 134.18,251.167 150.847,251.501 167.5,252.5C 165.223,253.421 162.89,254.087 160.5,254.5 Z"/></g>
<g><path style="opacity:1" fill="#bbbbbb" d="M 160.5,254.5 C 149.414,254.557 138.081,254.557 126.5,254.5C 126.737,255.791 126.404,256.791 125.5,257.5C 125.5,256.167 125.5,254.833 125.5,253.5C 137.247,253.189 148.914,253.522 160.5,254.5 Z"/></g>
<g><path style="opacity:1" fill="#191919" d="M 141.5,255.5 C 143.271,256.765 144.938,258.265 146.5,260C 146.167,260.5 145.833,261 145.5,261.5C 143.668,259.043 142.001,259.043 140.5,261.5C 147.781,264.63 148.281,268.63 142,273.5C 140.522,272.022 139.022,270.522 137.5,269C 139.24,267.173 140.907,267.34 142.5,269.5C 143.5,269.167 144.167,268.5 144.5,267.5C 142.267,266.258 140.101,264.924 138,263.5C 137.333,262.167 137.333,260.833 138,259.5C 139.627,258.468 140.793,257.134 141.5,255.5 Z"/></g>
<g><path style="opacity:1" fill="#fd3735" d="M 353.5,281.5 C 352.375,280 351.041,278.667 349.5,277.5C 354.425,275.743 357.925,272.41 360,267.5C 360.499,272.155 360.666,276.821 360.5,281.5C 358.167,281.5 355.833,281.5 353.5,281.5 Z"/></g>
<g><path style="opacity:1" fill="#bdbdbd" d="M 125.5,271.5 C 126.404,272.209 126.737,273.209 126.5,274.5C 137.5,274.5 148.5,274.5 159.5,274.5C 148.346,275.495 137.012,275.828 125.5,275.5C 125.5,274.167 125.5,272.833 125.5,271.5 Z"/></g>
<g><path style="opacity:1" fill="#101010" d="M 287.5,290.5 C 287.189,291.478 286.522,292.145 285.5,292.5C 284.335,300.145 284.169,307.812 285,315.5C 285.5,316 286,316.5 286.5,317C 279.167,317.667 271.833,317.667 264.5,317C 265.022,316.439 265.355,315.772 265.5,315C 263.862,310.233 261.862,305.733 259.5,301.5C 259.5,301.167 259.5,300.833 259.5,300.5C 257.096,294.787 254.596,289.12 252,283.5C 250.811,285.233 249.644,286.9 248.5,288.5C 248.955,285.797 249.622,283.13 250.5,280.5C 250.32,279.446 249.987,278.446 249.5,277.5C 251.386,276.594 253.22,275.594 255,274.5C 260.667,287.5 266.333,300.5 272,313.5C 273.724,316.73 275.724,317.064 278,314.5C 278.667,307.5 278.667,300.5 278,293.5C 277.355,292.354 276.522,291.354 275.5,290.5C 278.158,289.171 280.824,287.838 283.5,286.5C 284.298,288.078 284.798,289.744 285,291.5C 285.671,290.748 286.504,290.414 287.5,290.5 Z"/></g>
<g><path style="opacity:1" fill="#1d1d1d" d="M 335.5,282.5 C 338.167,282.5 340.833,282.5 343.5,282.5C 343.582,285.585 342.082,287.252 339,287.5C 336.679,287.091 334.513,286.257 332.5,285C 333.571,284.148 334.571,283.315 335.5,282.5 Z"/></g>
<g><path style="opacity:1" fill="#f6f6f6" d="M 259.5,300.5 C 254.456,300.827 249.456,300.494 244.5,299.5C 246.238,295.951 247.571,292.284 248.5,288.5C 249.644,286.9 250.811,285.233 252,283.5C 254.596,289.12 257.096,294.787 259.5,300.5 Z"/></g>
<g><path style="opacity:1" fill="#131313" d="M 287.5,290.5 C 292.655,285.73 298.155,285.397 304,289.5C 305.27,297.397 305.937,305.397 306,313.5C 306.465,314.931 307.299,316.097 308.5,317C 304.833,317.667 301.167,317.667 297.5,317C 298,316.5 298.5,316 299,315.5C 299.667,308.167 299.667,300.833 299,293.5C 298.535,292.069 297.701,290.903 296.5,290C 293.445,289.366 290.445,289.532 287.5,290.5 Z"/></g>
<g><path style="opacity:1" fill="#7a7a7a" d="M 328.5,287.5 C 327.508,287.328 326.842,287.662 326.5,288.5C 324.379,288.325 322.379,288.659 320.5,289.5C 320.5,289.167 320.5,288.833 320.5,288.5C 322.993,286.416 325.66,286.083 328.5,287.5 Z"/></g>
<g><path style="opacity:1" fill="#0d0d0d" d="M 326.5,288.5 C 326.842,287.662 327.508,287.328 328.5,287.5C 331.764,287.572 334.597,289.239 337,292.5C 338.076,297.072 337.243,301.239 334.5,305C 330.985,307.343 330.152,306.843 332,303.5C 333.211,297.293 331.378,292.293 326.5,288.5 Z"/></g>
<g><path style="opacity:1" fill="#717171" d="M 361.5,287.5 C 360.209,287.263 359.209,287.596 358.5,288.5C 356.379,288.325 354.379,288.659 352.5,289.5C 352.5,289.167 352.5,288.833 352.5,288.5C 355.373,286.518 358.373,286.185 361.5,287.5 Z"/></g>
<g><path style="opacity:1" fill="#121212" d="M 414.5,316.5 C 414.815,312.629 414.482,308.962 413.5,305.5C 413.5,304.5 413.5,303.5 413.5,302.5C 414.833,299.833 414.833,297.167 413.5,294.5C 412.712,291.379 410.712,289.712 407.5,289.5C 406.5,288.833 405.5,288.167 404.5,287.5C 410.198,285.486 415.032,286.82 419,291.5C 420.235,299.423 420.902,307.423 421,315.5C 421.5,316 422,316.5 422.5,317C 419.739,317.722 417.073,317.555 414.5,316.5 Z"/></g>
<g><path style="opacity:1" fill="#101010" d="M 358.5,288.5 C 359.209,287.596 360.209,287.263 361.5,287.5C 373.424,290.341 377.257,297.674 373,309.5C 368.152,317.056 361.318,319.556 352.5,317C 342.439,312.04 339.939,304.54 345,294.5C 347.106,291.882 349.606,289.882 352.5,288.5C 352.5,288.833 352.5,289.167 352.5,289.5C 350.39,290.453 349.223,292.119 349,294.5C 348.135,302.276 350.302,309.109 355.5,315C 364.104,318.197 368.437,315.197 368.5,306C 368.615,298.049 365.281,292.215 358.5,288.5 Z"/></g>
<g><path style="opacity:1" fill="#f9f9f9" d="M 358.5,288.5 C 365.281,292.215 368.615,298.049 368.5,306C 368.437,315.197 364.104,318.197 355.5,315C 350.302,309.109 348.135,302.276 349,294.5C 349.223,292.119 350.39,290.453 352.5,289.5C 354.379,288.659 356.379,288.325 358.5,288.5 Z"/></g>
<g><path style="opacity:1" fill="#575757" d="M 404.5,287.5 C 405.5,288.167 406.5,288.833 407.5,289.5C 405.801,289.34 404.134,289.506 402.5,290C 400.309,291.919 397.976,293.253 395.5,294C 397.823,290.844 400.823,288.677 404.5,287.5 Z"/></g>
<g><path style="opacity:1" fill="#747474" d="M 413.5,294.5 C 414.833,297.167 414.833,299.833 413.5,302.5C 413.657,301.127 413.49,299.793 413,298.5C 410.699,299.867 408.199,300.534 405.5,300.5C 407.65,299.33 409.984,298.33 412.5,297.5C 413.386,296.675 413.719,295.675 413.5,294.5 Z"/></g>
<g><path style="opacity:1" fill="#f7f7f7" d="M 413.5,302.5 C 413.5,303.5 413.5,304.5 413.5,305.5C 412.599,306.29 411.932,307.29 411.5,308.5C 408.789,313.703 404.956,314.703 400,311.5C 399.333,309.167 399.333,306.833 400,304.5C 401.812,303.023 403.645,301.69 405.5,300.5C 408.199,300.534 410.699,299.867 413,298.5C 413.49,299.793 413.657,301.127 413.5,302.5 Z"/></g>
<g><path style="opacity:1" fill="#363636" d="M 248.5,288.5 C 247.571,292.284 246.238,295.951 244.5,299.5C 249.456,300.494 254.456,300.827 259.5,300.5C 259.5,300.833 259.5,301.167 259.5,301.5C 254.125,301.172 248.792,301.505 243.5,302.5C 242.333,305.5 241.167,308.5 240,311.5C 239.257,313.441 239.424,315.274 240.5,317C 238.5,317.667 236.5,317.667 234.5,317C 236.617,315.269 238.117,313.102 239,310.5C 241.704,302.86 244.871,295.526 248.5,288.5 Z"/></g>
<g><path style="opacity:1" fill="#121212" d="M 405.5,300.5 C 403.645,301.69 401.812,303.023 400,304.5C 399.333,306.833 399.333,309.167 400,311.5C 404.956,314.703 408.789,313.703 411.5,308.5C 412.167,308.5 412.5,308.833 412.5,309.5C 408.537,318.025 402.704,319.691 395,314.5C 392.378,308.901 393.878,304.735 399.5,302C 401.436,301.187 403.436,300.687 405.5,300.5 Z"/></g>
<g><path style="opacity:1" fill="#999999" d="M 413.5,305.5 C 414.482,308.962 414.815,312.629 414.5,316.5C 413.833,314.167 413.167,311.833 412.5,309.5C 412.5,308.833 412.167,308.5 411.5,308.5C 411.932,307.29 412.599,306.29 413.5,305.5 Z"/></g>
<g><path style="opacity:1" fill="#131313" d="M 320.5,288.5 C 320.5,288.833 320.5,289.167 320.5,289.5C 318.553,295.72 319.553,301.387 323.5,306.5C 325.115,307.154 326.782,307.654 328.5,308C 325.571,308.777 322.737,308.61 320,307.5C 318.635,308.593 318.301,309.926 319,311.5C 326.178,312.378 333.344,313.544 340.5,315C 341.679,317.796 341.679,320.629 340.5,323.5C 339.833,322.833 339.167,322.167 338.5,321.5C 337.942,320.21 336.942,319.377 335.5,319C 329.833,318.333 324.167,318.333 318.5,319C 314.133,323.502 314.799,327.168 320.5,330C 326.169,331.068 331.503,330.235 336.5,327.5C 331.957,331.358 326.623,333.692 320.5,334.5C 308.394,331.136 307.394,325.636 317.5,318C 313.356,314.021 313.69,310.355 318.5,307C 314.057,303.938 312.557,299.771 314,294.5C 315.406,291.591 317.572,289.591 320.5,288.5 Z"/></g>
<g><path style="opacity:1" fill="#f7f7f7" d="M 338.5,321.5 C 338.396,323.703 337.73,325.703 336.5,327.5C 331.503,330.235 326.169,331.068 320.5,330C 314.799,327.168 314.133,323.502 318.5,319C 324.167,318.333 329.833,318.333 335.5,319C 336.942,319.377 337.942,320.21 338.5,321.5 Z"/></g>
<g><path style="opacity:1" fill="#5b5b5b" d="M 96.5,321.5 C 95.8333,322.167 95.1667,322.833 94.5,323.5C 92.5541,322.746 91.7207,321.412 92,319.5C 93.1096,321.037 94.6096,321.703 96.5,321.5 Z"/></g>
<g><path style="opacity:1" fill="#5c5c5c" d="M 338.5,321.5 C 339.167,322.167 339.833,322.833 340.5,323.5C 339.598,325.341 338.264,326.674 336.5,327.5C 337.73,325.703 338.396,323.703 338.5,321.5 Z"/></g>
</svg>
