<?xml version="1.0" encoding="UTF-8"?>
<!DOCTYPE svg PUBLIC "-//W3C//DTD SVG 1.1//EN" "http://www.w3.org/Graphics/SVG/1.1/DTD/svg11.dtd">
<svg xmlns="http://www.w3.org/2000/svg" version="1.1" width="500px" height="500px" style="shape-rendering:geometricPrecision; text-rendering:geometricPrecision; image-rendering:optimizeQuality; fill-rule:evenodd; clip-rule:evenodd" xmlns:xlink="http://www.w3.org/1999/xlink">
<g><path style="opacity:1" fill="#000000" d="M -0.5,-0.5 C 166.167,-0.5 332.833,-0.5 499.5,-0.5C 499.5,166.167 499.5,332.833 499.5,499.5C 332.833,499.5 166.167,499.5 -0.5,499.5C -0.5,332.833 -0.5,166.167 -0.5,-0.5 Z"/></g>
<g><path style="opacity:1" fill="#fbfbfb" d="M 78.5,314.5 C 78.5,280.167 78.5,245.833 78.5,211.5C 93.0097,211.829 107.343,211.496 121.5,210.5C 118.915,192.969 123.915,178.136 136.5,166C 154.223,156.907 169.39,160.074 182,175.5C 187.906,186.419 190.072,198.086 188.5,210.5C 203.167,210.5 217.833,210.5 232.5,210.5C 232.667,245.835 232.5,281.168 232,316.5C 228.724,328.11 221.224,335.277 209.5,338C 172.5,338.667 135.5,338.667 98.5,338C 86.8948,334.238 80.2282,326.405 78.5,314.5 Z"/></g>
<g><path style="opacity:1" fill="#030303" d="M 150.5,171.5 C 165.049,171.21 173.883,178.21 177,192.5C 177.499,198.491 177.666,204.491 177.5,210.5C 162.833,210.5 148.167,210.5 133.5,210.5C 133.099,202.415 133.599,194.415 135,186.5C 138.106,179.225 143.272,174.225 150.5,171.5 Z"/></g>
<g><path style="opacity:1" fill="#7c7c7c" d="M 340.5,205.5 C 347.344,204.181 354.344,204.181 361.5,205.5C 361.376,206.107 361.043,206.44 360.5,206.5C 354.021,205.509 347.354,205.176 340.5,205.5 Z"/></g>
<g><path style="opacity:1" fill="#7b7b7b" d="M 401.5,206.5 C 397.167,205.167 392.833,205.167 388.5,206.5C 387.957,206.44 387.624,206.107 387.5,205.5C 392.5,204.167 397.5,204.167 402.5,205.5C 402.376,206.107 402.043,206.44 401.5,206.5 Z"/></g>
<g><path style="opacity:1" fill="#f6312f" d="M 339.5,279.5 C 339.5,280.833 338.833,281.5 337.5,281.5C 327.81,281.832 318.144,281.498 308.5,280.5C 309.853,279.315 311.02,277.981 312,276.5C 312.498,273.183 312.665,269.85 312.5,266.5C 321.726,250.478 321.726,234.478 312.5,218.5C 313.335,213.439 312.001,209.105 308.5,205.5C 315.134,204.503 321.8,204.17 328.5,204.5C 327.861,206.76 326.694,208.76 325,210.5C 324.333,232.5 324.333,254.5 325,276.5C 325.5,277.667 326.333,278.5 327.5,279C 331.486,279.499 335.486,279.666 339.5,279.5 Z"/></g>
<g><path style="opacity:1" fill="#f4f4f4" d="M 340.5,205.5 C 347.354,205.176 354.021,205.509 360.5,206.5C 359.222,208.544 359.388,210.544 361,212.5C 365.833,220.167 370.667,227.833 375.5,235.5C 381.149,228.216 386.316,220.549 391,212.5C 391.966,209.66 391.133,207.66 388.5,206.5C 392.833,205.167 397.167,205.167 401.5,206.5C 398.614,207.879 396.114,209.879 394,212.5C 388.236,221.036 382.736,229.703 377.5,238.5C 384.096,250.273 390.93,261.94 398,273.5C 400.349,276.017 402.849,278.35 405.5,280.5C 399.537,281.496 393.537,281.829 387.5,281.5C 387.333,292.838 387.5,304.172 388,315.5C 388.5,316 389,316.5 389.5,317C 385.833,317.667 382.167,317.667 378.5,317C 379,316.5 379.5,316 380,315.5C 380.667,301.833 380.667,288.167 380,274.5C 379.308,273.975 378.808,273.308 378.5,272.5C 379.665,271.416 380.998,270.583 382.5,270C 377.426,261.857 372.426,254.357 367.5,247.5C 366.833,247.167 366.167,246.833 365.5,246.5C 365.804,245.85 366.137,245.183 366.5,244.5C 359.918,233.001 353.085,221.667 346,210.5C 343.809,209.167 341.976,207.5 340.5,205.5 Z"/></g>
<g><path style="opacity:1" fill="#e4e108" d="M 312.5,218.5 C 321.726,234.478 321.726,250.478 312.5,266.5C 297.761,282.012 280.428,285.512 260.5,277C 242.525,264.476 237.025,247.643 244,226.5C 254.689,206.414 271.189,199.247 293.5,205C 301.129,207.813 307.462,212.313 312.5,218.5 Z"/></g>
<g><path style="opacity:1" fill="#020200" d="M 267.5,206.5 C 280.162,204.913 290.329,209.246 298,219.5C 306.395,233.077 309.395,247.743 307,263.5C 303.887,273.482 297.053,278.149 286.5,277.5C 278.797,277.731 272.297,275.064 267,269.5C 256.715,256.644 252.048,241.978 253,225.5C 254.484,216.499 259.317,210.166 267.5,206.5 Z"/></g>
<g><path style="opacity:1" fill="#aeaeae" d="M 121.5,210.5 C 107.343,211.496 93.0097,211.829 78.5,211.5C 78.5,245.833 78.5,280.167 78.5,314.5C 77.5016,280.004 77.1683,245.337 77.5,210.5C 92.1667,210.5 106.833,210.5 121.5,210.5 Z"/></g>
<g><path style="opacity:1" fill="#454545" d="M 177.5,227.5 C 176.549,226.081 176.216,224.415 176.5,222.5C 162.167,222.5 147.833,222.5 133.5,222.5C 133.784,224.415 133.451,226.081 132.5,227.5C 132.5,225.5 132.5,223.5 132.5,221.5C 147.5,221.5 162.5,221.5 177.5,221.5C 177.5,223.5 177.5,225.5 177.5,227.5 Z"/></g>
<g><path style="opacity:1" fill="#424242" d="M 122.5,227.5 C 121.549,226.081 121.216,224.415 121.5,222.5C 110.833,222.5 100.167,222.5 89.5,222.5C 89.5,248.167 89.5,273.833 89.5,299.5C 88.5007,274.241 88.1674,248.241 88.5,221.5C 99.8333,221.5 111.167,221.5 122.5,221.5C 122.5,223.5 122.5,225.5 122.5,227.5 Z"/></g>
<g><path style="opacity:1" fill="#040404" d="M 89.5,299.5 C 89.5,273.833 89.5,248.167 89.5,222.5C 100.167,222.5 110.833,222.5 121.5,222.5C 121.216,224.415 121.549,226.081 122.5,227.5C 125.833,227.5 129.167,227.5 132.5,227.5C 133.451,226.081 133.784,224.415 133.5,222.5C 147.833,222.5 162.167,222.5 176.5,222.5C 176.216,224.415 176.549,226.081 177.5,227.5C 181.167,227.5 184.833,227.5 188.5,227.5C 188.5,225.5 188.5,223.5 188.5,221.5C 199.5,221.5 210.5,221.5 221.5,221.5C 221.5,225.5 221.5,229.5 221.5,233.5C 219.533,233.261 217.699,233.594 216,234.5C 215.333,244.833 215.333,255.167 216,265.5C 217.699,266.406 219.533,266.739 221.5,266.5C 221.667,282.503 221.5,298.503 221,314.5C 219.5,321.333 215.333,325.5 208.5,327C 172.833,327.667 137.167,327.667 101.5,327C 93.1797,324.812 92.8463,322.478 100.5,320C 110.638,320.025 120.638,321.358 130.5,324C 141.335,325.433 151.668,323.766 161.5,319C 166.833,316 172.167,313 177.5,310C 178.935,307.733 178.602,305.733 176.5,304C 174.167,303.333 171.833,303.333 169.5,304C 164.118,305.524 159.118,307.858 154.5,311C 145.973,311.687 137.64,310.687 129.5,308C 133.324,307.773 137.158,307.94 141,308.5C 143.925,308.477 146.759,307.977 149.5,307C 150.935,304.733 150.602,302.733 148.5,301C 136.189,298.227 124.023,295.06 112,291.5C 110.167,291.667 108.333,291.833 106.5,292C 100.812,294.512 95.1451,297.012 89.5,299.5 Z"/></g>
<g><path style="opacity:1" fill="#ededed" d="M 137.5,224.5 C 138.552,224.351 139.552,224.517 140.5,225C 146.167,231.333 151.833,237.667 157.5,244C 156.092,244.315 154.759,243.982 153.5,243C 149.65,239.451 146.15,235.617 143,231.5C 140.073,235.452 137.239,235.452 134.5,231.5C 132.595,233.058 131.761,232.725 132,230.5C 134.04,228.63 135.873,226.63 137.5,224.5 Z"/></g>
<g><path style="opacity:1" fill="#fbfbfb" d="M 169.5,230.5 C 183.796,232.685 198.129,234.685 212.5,236.5C 212.5,245.5 212.5,254.5 212.5,263.5C 211.127,263.343 209.793,263.51 208.5,264C 203.731,267.103 198.731,269.769 193.5,272C 180.154,272.454 166.82,272.121 153.5,271C 150.28,264.125 152.614,259.791 160.5,258C 165.833,257.333 171.167,256.667 176.5,256C 182.058,252.115 181.724,248.782 175.5,246C 172.854,245.503 170.187,245.336 167.5,245.5C 166.974,240.193 167.64,235.193 169.5,230.5 Z"/></g>
<g><path style="opacity:1" fill="#e5e5e5" d="M 127.5,233.5 C 138.531,237.849 149.198,243.015 159.5,249C 157.833,249.667 156.167,249.667 154.5,249C 148.08,245.373 141.58,241.873 135,238.5C 133.565,243.228 130.898,244.228 127,241.5C 125.401,244.378 123.567,247.044 121.5,249.5C 120.417,248.635 120.251,247.635 121,246.5C 123.705,242.423 125.872,238.09 127.5,233.5 Z"/></g>
<g><path style="opacity:1" fill="#fafafa" d="M 160.5,254.5 C 148.914,253.522 137.247,253.189 125.5,253.5C 125.5,254.833 125.5,256.167 125.5,257.5C 124.362,260.267 122.528,260.934 120,259.5C 119.502,262.817 119.335,266.15 119.5,269.5C 122.01,269.054 124.01,269.72 125.5,271.5C 125.5,272.833 125.5,274.167 125.5,275.5C 137.012,275.828 148.346,275.495 159.5,274.5C 162.167,274.5 164.833,274.5 167.5,274.5C 167.5,275.5 167.5,276.5 167.5,277.5C 150.833,277.5 134.167,277.5 117.5,277.5C 117.5,268.833 117.5,260.167 117.5,251.5C 134.18,251.167 150.847,251.501 167.5,252.5C 165.293,253.635 162.96,254.301 160.5,254.5 Z"/></g>
<g><path style="opacity:1" fill="#434343" d="M 160.5,254.5 C 149.414,254.557 138.081,254.557 126.5,254.5C 126.737,255.791 126.404,256.791 125.5,257.5C 125.5,256.167 125.5,254.833 125.5,253.5C 137.247,253.189 148.914,253.522 160.5,254.5 Z"/></g>
<g><path style="opacity:1" fill="#e2e2e2" d="M 140.5,255.5 C 142.984,256.234 144.984,257.734 146.5,260C 146.167,260.5 145.833,261 145.5,261.5C 143.802,260.319 142.135,260.319 140.5,261.5C 142.22,262.92 144.054,264.253 146,265.5C 146.167,266.333 146.333,267.167 146.5,268C 145.422,270.137 143.922,271.97 142,273.5C 140.522,272.022 139.022,270.522 137.5,269C 139.24,267.173 140.907,267.34 142.5,269.5C 143.5,269.167 144.167,268.5 144.5,267.5C 142.267,266.258 140.101,264.924 138,263.5C 137.333,262.167 137.333,260.833 138,259.5C 139.481,258.529 140.315,257.196 140.5,255.5 Z"/></g>
<g><path style="opacity:1" fill="#f73231" d="M 353.5,281.5 C 352.375,280 351.041,278.667 349.5,277.5C 354.425,275.743 357.925,272.41 360,267.5C 360.499,272.155 360.666,276.821 360.5,281.5C 358.167,281.5 355.833,281.5 353.5,281.5 Z"/></g>
<g><path style="opacity:1" fill="#414141" d="M 125.5,271.5 C 126.404,272.209 126.737,273.209 126.5,274.5C 137.5,274.5 148.5,274.5 159.5,274.5C 148.346,275.495 137.012,275.828 125.5,275.5C 125.5,274.167 125.5,272.833 125.5,271.5 Z"/></g>
<g><path style="opacity:1" fill="#e8e8e8" d="M 287.5,290.5 C 287.189,291.478 286.522,292.145 285.5,292.5C 284.335,299.811 284.169,307.144 285,314.5C 285.374,315.416 285.874,316.25 286.5,317C 278.833,317.667 271.167,317.667 263.5,317C 264.065,311.663 262.731,306.663 259.5,302C 254.177,301.501 248.844,301.334 243.5,301.5C 242.185,305.474 240.851,309.474 239.5,313.5C 239.529,315.029 240.196,316.196 241.5,317C 238.833,317.667 236.167,317.667 233.5,317C 235.906,315.378 237.739,313.211 239,310.5C 242.667,301.167 246.333,291.833 250,282.5C 250.651,280.765 250.485,279.098 249.5,277.5C 251.179,276.218 253.013,275.218 255,274.5C 260.591,286.686 265.925,299.02 271,311.5C 272.135,314.707 274.135,316.041 277,315.5C 277.667,307.833 277.667,300.167 277,292.5C 276.308,291.975 275.808,291.308 275.5,290.5C 278.158,289.171 280.824,287.838 283.5,286.5C 284.298,288.078 284.798,289.744 285,291.5C 285.671,290.748 286.504,290.414 287.5,290.5 Z"/></g>
<g><path style="opacity:1" fill="#070707" d="M 251.5,283.5 C 254.628,288.767 256.961,294.434 258.5,300.5C 253.786,300.827 249.12,300.493 244.5,299.5C 246.848,294.141 249.181,288.807 251.5,283.5 Z"/></g>
<g><path style="opacity:1" fill="#e9e9e9" d="M 287.5,290.5 C 292.655,285.73 298.155,285.397 304,289.5C 304.667,290.833 305.333,292.167 306,293.5C 306.333,300.833 306.667,308.167 307,315.5C 307.5,316 308,316.5 308.5,317C 304.833,317.667 301.167,317.667 297.5,317C 298,316.5 298.5,316 299,315.5C 299.667,308.167 299.667,300.833 299,293.5C 298.5,291.667 297.333,290.5 295.5,290C 292.808,289.57 290.141,289.737 287.5,290.5 Z"/></g>
<g><path style="opacity:1" fill="#e8e8e8" d="M 365.5,246.5 C 366.167,246.833 366.833,247.167 367.5,247.5C 362.343,255.138 357.177,262.805 352,270.5C 350.589,272.65 349.755,274.984 349.5,277.5C 351.041,278.667 352.375,280 353.5,281.5C 349.818,281.335 346.152,281.501 342.5,282C 343.911,285.282 342.745,287.116 339,287.5C 336.849,287.227 334.849,286.561 333,285.5C 332.308,286.025 331.808,286.692 331.5,287.5C 338.272,292.249 339.272,298.082 334.5,305C 329.684,308.159 324.351,309.326 318.5,308.5C 318.33,309.822 318.663,310.989 319.5,312C 324.833,312.333 330.167,312.667 335.5,313C 341.121,313.855 342.954,317.022 341,322.5C 340.34,324.324 339.173,325.657 337.5,326.5C 330.823,333.841 322.823,335.841 313.5,332.5C 309.705,329.015 309.538,325.349 313,321.5C 314.41,320.213 315.91,319.046 317.5,318C 313.356,314.021 313.69,310.355 318.5,307C 316.333,306.167 314.833,304.667 314,302.5C 313.328,291.171 318.828,285.671 330.5,286C 332.76,284.212 335.093,282.712 337.5,281.5C 338.833,281.5 339.5,280.833 339.5,279.5C 341.89,278.554 344.056,277.221 346,275.5C 352.51,265.805 359.01,256.138 365.5,246.5 Z"/></g>
<g><path style="opacity:1" fill="#0a0a0a" d="M 321.5,288.5 C 326.133,287.458 329.299,289.125 331,293.5C 332.368,296.738 332.701,300.072 332,303.5C 328.433,308.796 324.766,308.796 321,303.5C 318.865,298.302 319.032,293.302 321.5,288.5 Z"/></g>
<g><path style="opacity:1" fill="#e9e9e9" d="M 355.5,286.5 C 372.519,287.2 378.019,295.534 372,311.5C 362.925,320.756 353.925,320.756 345,311.5C 340.264,299.644 343.764,291.311 355.5,286.5 Z"/></g>
<g><path style="opacity:1" fill="#080808" d="M 353.5,288.5 C 360.237,288.06 364.737,291.06 367,297.5C 369,302.833 369,308.167 367,313.5C 363.547,316.769 359.714,317.269 355.5,315C 350.302,309.109 348.135,302.276 349,294.5C 349.804,291.854 351.304,289.854 353.5,288.5 Z"/></g>
<g><path style="opacity:1" fill="#dedede" d="M 405.5,286.5 C 410.969,285.71 415.469,287.377 419,291.5C 420.267,299.062 420.934,306.729 421,314.5C 421.374,315.416 421.874,316.25 422.5,317C 419.833,317.667 417.167,317.667 414.5,317C 413.726,314.595 413.226,312.095 413,309.5C 409.024,318.174 403.024,320.174 395,315.5C 392.094,308.475 394.26,303.641 401.5,301C 405.141,299.731 408.808,298.564 412.5,297.5C 414.006,292.152 411.839,289.486 406,289.5C 401.992,290.265 398.492,291.765 395.5,294C 398.365,290.749 401.699,288.249 405.5,286.5 Z"/></g>
<g><path style="opacity:1" fill="#070707" d="M 412.5,298.5 C 414.201,304.308 412.535,309.141 407.5,313C 400.628,313.959 398.295,311.126 400.5,304.5C 404.271,301.918 408.271,299.918 412.5,298.5 Z"/></g>
<g><path style="opacity:1" fill="#090909" d="M 337.5,326.5 C 331.565,330.367 325.232,331.2 318.5,329C 314.5,325.667 314.5,322.333 318.5,319C 323.833,318.333 329.167,318.333 334.5,319C 338.581,320.11 339.581,322.61 337.5,326.5 Z"/></g>
</svg>
